<svg width="73" height="57" viewBox="0 0 73 57" fill="none" xmlns="http://www.w3.org/2000/svg">
<rect x="1.46" y="1.46" width="70.08" height="54.08" rx="7.3" fill="white" stroke="black" stroke-width="2.92"/>
<path d="M58 1.52777H64.8611C68.2515 1.52777 71 4.27625 71 7.66666V7.66666C71 11.0571 68.2515 13.8055 64.8611 13.8055H58V1.52777Z" fill="black"/>
<path d="M71.5 12.5H1" stroke="black" stroke-width="3"/>
<path d="M33.7426 23.4922C33.7426 23.5586 33.723 23.6211 33.684 23.6797C33.6488 23.7344 33.598 23.7715 33.5316 23.791C33.3949 23.8262 33.2602 23.8594 33.1273 23.8906C32.9945 23.918 32.8598 23.9414 32.723 23.9609C32.8246 24.5781 32.8949 25.1777 32.934 25.7598C32.977 26.3418 32.9984 26.918 32.9984 27.4883C32.9984 28.2617 32.9672 29.0078 32.9047 29.7266C32.8461 30.4453 32.7738 31.1504 32.6879 31.8418C32.6645 31.9277 32.6234 31.9922 32.5648 32.0352C32.5102 32.082 32.4477 32.1055 32.3773 32.1055C32.2445 32.1055 32.1527 32.043 32.102 31.918C31.9926 31.6523 31.8422 31.3262 31.6508 30.9395C31.4633 30.5488 31.2504 30.1309 31.0121 29.6855C30.7777 29.2363 30.5277 28.7715 30.2621 28.291C30.0004 27.8105 29.7426 27.3457 29.4887 26.8965C29.2387 26.4473 29.0023 26.0273 28.7797 25.6367C28.557 25.2422 28.3676 24.9082 28.2113 24.6348L28.0355 31.4258C28.184 31.4375 28.3344 31.4492 28.4867 31.4609C28.643 31.4727 28.7992 31.4844 28.9555 31.4961C29.0336 31.5078 29.098 31.543 29.1488 31.6016C29.2035 31.6602 29.2309 31.7285 29.2309 31.8066C29.2309 31.8965 29.1977 31.9688 29.1313 32.0234C29.0648 32.0781 28.9945 32.1055 28.9203 32.1055H28.8969C28.5844 32.0742 28.2719 32.0508 27.9594 32.0352C27.6508 32.0195 27.3402 32.0117 27.0277 32.0117C26.7191 32.0117 26.4125 32.0195 26.1078 32.0352C25.807 32.0508 25.5043 32.0742 25.1996 32.1055H25.1762C25.0902 32.1055 25.016 32.0742 24.9535 32.0117C24.8949 31.9531 24.8656 31.8848 24.8656 31.8066C24.8656 31.7285 24.891 31.6602 24.9418 31.6016C24.9965 31.543 25.0629 31.5078 25.141 31.4961C25.2855 31.4844 25.4301 31.4727 25.5746 31.4609C25.723 31.4492 25.8695 31.4375 26.0141 31.4258L26.1488 24.0312C25.8129 24.0078 25.473 23.9727 25.1293 23.9258C25.0512 23.9141 24.9867 23.8789 24.9359 23.8203C24.8891 23.7578 24.8656 23.6875 24.8656 23.6094C24.8656 23.5156 24.9008 23.4434 24.9711 23.3926C25.0414 23.3379 25.1098 23.3105 25.1762 23.3105H25.2113C25.6293 23.3652 26.0375 23.4082 26.4359 23.4395C26.8383 23.4668 27.2387 23.4805 27.6371 23.4805H28.0707C28.0746 23.4805 28.0863 23.4824 28.1059 23.4863C28.1254 23.4863 28.1469 23.4902 28.1703 23.498C28.1977 23.5059 28.225 23.5195 28.2523 23.5391C28.2836 23.5586 28.3109 23.5859 28.3344 23.6211C28.35 23.6484 28.4008 23.7363 28.4867 23.8848C28.5727 24.0332 28.684 24.2266 28.8207 24.4648C28.9574 24.7031 29.1137 24.9785 29.2895 25.291C29.4691 25.6035 29.6586 25.9375 29.8578 26.293C30.0609 26.6484 30.268 27.0176 30.4789 27.4004C30.6898 27.7832 30.8969 28.166 31.1 28.5488C31.307 28.9277 31.5043 29.2988 31.6918 29.6621C31.8832 30.0215 32.0551 30.3574 32.2074 30.6699C32.2582 30.1582 32.3012 29.6387 32.3363 29.1113C32.3715 28.584 32.3891 28.043 32.3891 27.4883C32.3891 26.9336 32.3676 26.3672 32.3246 25.7891C32.2816 25.2109 32.2113 24.6172 32.1137 24.0078C32.0629 24.0156 32.0141 24.0195 31.9672 24.0195C31.9203 24.0195 31.8695 24.0195 31.8148 24.0195C31.5844 24.0195 31.3441 24.0078 31.0941 23.9844C31.016 23.9766 30.9496 23.9434 30.8949 23.8848C30.8441 23.8223 30.8188 23.752 30.8188 23.6738C30.8188 23.5879 30.85 23.5156 30.9125 23.457C30.9789 23.3984 31.0512 23.3691 31.1293 23.3691H31.1645C31.2738 23.3848 31.3813 23.3965 31.4867 23.4043C31.5961 23.4082 31.7055 23.4102 31.8148 23.4102C32.0844 23.4102 32.348 23.3926 32.6059 23.3574C32.8637 23.3223 33.1156 23.2715 33.3617 23.2051C33.3773 23.1973 33.4047 23.1934 33.4438 23.1934C33.5297 23.1934 33.6 23.2246 33.6547 23.2871C33.7133 23.3457 33.7426 23.4141 33.7426 23.4922ZM40.8699 29.1055C40.8699 28.9141 40.8484 28.7207 40.8055 28.5254C40.7625 28.3301 40.7 28.1406 40.618 27.957C40.5359 27.7734 40.4363 27.6016 40.3191 27.4414C40.202 27.2812 40.0691 27.1426 39.9207 27.0254C39.7762 26.9043 39.616 26.8105 39.4402 26.7441C39.2684 26.6738 39.0848 26.6387 38.8895 26.6387C38.6707 26.6387 38.4793 26.6758 38.3152 26.75C38.1551 26.8203 38.0145 26.918 37.8934 27.043C37.7723 27.1641 37.6727 27.3047 37.5945 27.4648C37.5164 27.625 37.4539 27.7949 37.407 27.9746C37.3602 28.1543 37.327 28.3359 37.3074 28.5195C37.2879 28.7031 37.2781 28.8789 37.2781 29.0469C37.2781 29.2188 37.2859 29.4023 37.3016 29.5977C37.3172 29.7891 37.3445 29.9805 37.3836 30.1719C37.4227 30.3594 37.4754 30.541 37.5418 30.7168C37.6082 30.8926 37.6941 31.0469 37.7996 31.1797C37.9051 31.3125 38.032 31.418 38.1805 31.4961C38.3328 31.5742 38.5125 31.6133 38.7195 31.6133C39.0594 31.6133 39.3621 31.543 39.6277 31.4023C39.8973 31.2578 40.1238 31.0684 40.3074 30.834C40.491 30.5996 40.6297 30.332 40.7234 30.0312C40.8211 29.7305 40.8699 29.4219 40.8699 29.1055ZM41.4793 29.1055C41.4793 29.5742 41.3953 30.0039 41.2273 30.3945C41.0594 30.7852 40.8328 31.1211 40.5477 31.4023C40.2625 31.6797 39.9285 31.8965 39.5457 32.0527C39.1668 32.209 38.7664 32.2871 38.3445 32.2871C37.868 32.2871 37.4363 32.2109 37.0496 32.0586C36.6668 31.9102 36.3387 31.6973 36.0652 31.4199C35.7918 31.1426 35.5809 30.8086 35.4324 30.418C35.2879 30.0273 35.2156 29.5898 35.2156 29.1055C35.2156 28.6445 35.2957 28.2188 35.4559 27.8281C35.616 27.4375 35.8367 27.1016 36.118 26.8203C36.3992 26.5352 36.7293 26.3145 37.1082 26.1582C37.491 25.998 37.9031 25.918 38.3445 25.918C38.8055 25.918 39.2273 26.0039 39.6102 26.1758C39.9969 26.3438 40.3289 26.5742 40.6063 26.8672C40.8836 27.1562 41.0984 27.4941 41.2508 27.8809C41.4031 28.2676 41.4793 28.6758 41.4793 29.1055ZM47.7043 26.2988C47.7043 26.377 47.677 26.4473 47.6223 26.5098C47.5715 26.5684 47.507 26.6016 47.4289 26.6094C47.175 26.6289 46.923 26.6465 46.673 26.6621C46.423 26.6777 46.1711 26.6895 45.9172 26.6973V30.7988C45.9172 30.877 45.9328 30.9492 45.9641 31.0156C45.9992 31.082 46.0422 31.1387 46.093 31.1855C46.1477 31.2324 46.2082 31.2695 46.2746 31.2969C46.341 31.3242 46.4094 31.3379 46.4797 31.3379C46.5852 31.3379 46.6711 31.3105 46.7375 31.2559C46.8078 31.1973 46.8664 31.127 46.9133 31.0449C46.9602 30.959 46.9973 30.8691 47.0246 30.7754C47.0559 30.6816 47.0813 30.5977 47.1008 30.5234C47.1125 30.4531 47.1477 30.3965 47.2063 30.3535C47.2648 30.3066 47.3293 30.2832 47.3996 30.2832C47.4895 30.2832 47.5617 30.3184 47.6164 30.3887C47.675 30.4551 47.7043 30.5234 47.7043 30.5938V30.6582C47.591 31.1777 47.3684 31.5801 47.0363 31.8652C46.7043 32.1465 46.2941 32.2871 45.8059 32.2871C45.5832 32.2871 45.3547 32.2578 45.1203 32.1992C44.8859 32.1406 44.673 32.0312 44.4816 31.8711C44.2941 31.7109 44.1398 31.4902 44.0188 31.209C43.8977 30.9238 43.8371 30.5547 43.8371 30.1016V26.6855C43.6613 26.6738 43.4836 26.6621 43.3039 26.6504C43.1281 26.6387 42.9504 26.625 42.7707 26.6094C42.6926 26.5977 42.6262 26.5625 42.5715 26.5039C42.5207 26.4453 42.4953 26.377 42.4953 26.2988C42.4953 26.209 42.5285 26.1367 42.5949 26.082C42.6652 26.0273 42.7355 26 42.8059 26H42.8293C43.0012 26.0117 43.1691 26.0234 43.3332 26.0352C43.5012 26.0469 43.6691 26.0586 43.8371 26.0703V24.0781C43.8371 24.0117 43.8586 23.9512 43.9016 23.8965C43.9445 23.8379 43.9992 23.7988 44.0656 23.7793L45.5305 23.3867C45.5422 23.3789 45.5559 23.375 45.5715 23.375C45.5871 23.3711 45.6008 23.3691 45.6125 23.3691C45.7023 23.3691 45.7746 23.4023 45.8293 23.4688C45.8879 23.5352 45.9172 23.6074 45.9172 23.6855V26.082C46.1555 26.0742 46.3957 26.0645 46.6379 26.0527C46.884 26.0371 47.1301 26.0195 47.3762 26H47.3996C47.4855 26 47.5578 26.0312 47.6164 26.0938C47.675 26.1523 47.7043 26.2207 47.7043 26.2988ZM13.5758 43.834C13.5758 43.2129 13.4703 42.6621 13.2594 42.1816C13.0484 41.6973 12.7574 41.2949 12.3863 40.9746C12.0191 40.6504 11.5816 40.4121 11.0738 40.2598C10.5699 40.1035 10.025 40.043 9.43906 40.0781V47.6309C9.81406 47.6426 10.1773 47.6094 10.5289 47.5312C10.8805 47.4531 11.2086 47.3359 11.5133 47.1797C11.8219 47.0195 12.1012 46.8262 12.3512 46.5996C12.6051 46.373 12.8219 46.1172 13.0016 45.832C13.1852 45.5469 13.3258 45.2363 13.4234 44.9004C13.525 44.5645 13.5758 44.209 13.5758 43.834ZM14.191 43.834C14.191 44.3184 14.1266 44.7637 13.9977 45.1699C13.8727 45.5762 13.6969 45.9434 13.4703 46.2715C13.2437 46.5996 12.9723 46.8867 12.6559 47.1328C12.3395 47.3789 11.9898 47.5859 11.607 47.7539C11.2281 47.918 10.8238 48.041 10.3941 48.123C9.96445 48.209 9.52109 48.252 9.06406 48.252C8.68125 48.252 8.33359 48.2324 8.02109 48.1934C7.7125 48.1543 7.44492 48.1113 7.21836 48.0645C6.9957 48.0176 6.81992 47.9746 6.69102 47.9355C6.56602 47.8926 6.49766 47.8691 6.48594 47.8652C6.42734 47.8418 6.37852 47.8047 6.33945 47.7539C6.30039 47.6992 6.28086 47.6406 6.28086 47.5781C6.28086 47.4883 6.31406 47.4141 6.38047 47.3555C6.44687 47.2969 6.51914 47.2676 6.59727 47.2676C6.6168 47.2676 6.63437 47.2695 6.65 47.2734C6.66562 47.2773 6.6832 47.2832 6.70273 47.291C6.75352 47.3105 6.81406 47.3301 6.88437 47.3496C6.99766 47.3848 7.16562 47.4258 7.38828 47.4727V40.2949C7.13047 40.3496 6.9332 40.3965 6.79648 40.4355C6.71445 40.459 6.64219 40.4805 6.57969 40.5C6.56016 40.5078 6.54258 40.5137 6.52695 40.5176C6.51133 40.5215 6.49375 40.5234 6.47422 40.5234C6.38437 40.5234 6.31211 40.4922 6.25742 40.4297C6.20273 40.3633 6.17539 40.291 6.17539 40.2129C6.17539 40.1465 6.19297 40.0879 6.22812 40.0371C6.26328 39.9824 6.31406 39.9453 6.38047 39.9258C6.39609 39.9219 6.48203 39.8965 6.63828 39.8496C6.79844 39.7988 7.01133 39.7461 7.27695 39.6914C7.54648 39.6328 7.86094 39.582 8.22031 39.5391C8.57969 39.4922 8.96641 39.4688 9.38047 39.4688C10.068 39.4688 10.7047 39.5605 11.2906 39.7441C11.8766 39.9238 12.3844 40.1953 12.8141 40.5586C13.2437 40.9219 13.5797 41.377 13.8219 41.9238C14.068 42.4707 14.191 43.1074 14.191 43.834ZM21.0664 44.9062V44.8066C21.0664 44.5137 21.0352 44.2422 20.9727 43.9922C20.9102 43.7422 20.8105 43.5215 20.6738 43.3301C20.541 43.1348 20.3691 42.9746 20.1582 42.8496C19.9473 42.7246 19.6934 42.6406 19.3965 42.5977C19.1895 42.6211 19.0098 42.6777 18.8574 42.7676C18.7051 42.8574 18.5742 42.9688 18.4648 43.1016C18.3594 43.2305 18.2715 43.377 18.2012 43.541C18.1309 43.7051 18.0742 43.875 18.0312 44.0508C17.9922 44.2227 17.9629 44.3965 17.9434 44.5723C17.9238 44.7441 17.9121 44.9062 17.9082 45.0586C17.9707 45.0781 18.0488 45.0996 18.1426 45.123C18.2402 45.1465 18.3496 45.1699 18.4707 45.1934C18.5918 45.2129 18.7227 45.2305 18.8633 45.2461C19.0078 45.2578 19.1582 45.2637 19.3145 45.2637C19.6465 45.2637 19.957 45.2324 20.2461 45.1699C20.5391 45.1074 20.8125 45.0195 21.0664 44.9062ZM21.6641 45.1348C21.6523 45.2363 21.5977 45.3242 21.5 45.3984C21.4023 45.4727 21.2793 45.5391 21.1309 45.5977C20.9824 45.6523 20.8184 45.6992 20.6387 45.7383C20.4629 45.7734 20.2891 45.8027 20.1172 45.8262C19.9453 45.8496 19.7871 45.8672 19.6426 45.8789C19.498 45.8867 19.3848 45.8906 19.3027 45.8906C19.0176 45.8906 18.7539 45.8711 18.5117 45.832C18.2734 45.793 18.0762 45.752 17.9199 45.709C17.9434 45.9512 17.9883 46.1895 18.0547 46.4238C18.1211 46.6582 18.2168 46.8691 18.3418 47.0566C18.4668 47.2402 18.623 47.3906 18.8105 47.5078C18.998 47.6211 19.2246 47.6777 19.4902 47.6777C19.5879 47.6777 19.6992 47.666 19.8242 47.6426C19.9492 47.6152 20.0723 47.5781 20.1934 47.5312C20.3145 47.4805 20.4258 47.4219 20.5273 47.3555C20.6289 47.2852 20.709 47.207 20.7676 47.1211C20.834 47.043 20.9141 47.0039 21.0078 47.0039C21.0898 47.0039 21.1621 47.0371 21.2246 47.1035C21.2871 47.166 21.3184 47.2363 21.3184 47.3145C21.3184 47.3965 21.293 47.4609 21.2422 47.5078C21.1484 47.6523 21.0176 47.7754 20.8496 47.877C20.6816 47.9785 20.5 48.0605 20.3047 48.123C20.1094 48.1895 19.9121 48.2363 19.7129 48.2637C19.5137 48.2949 19.332 48.3105 19.168 48.3105C18.6992 48.3105 18.2637 48.2266 17.8613 48.0586C17.459 47.8945 17.1094 47.668 16.8125 47.3789C16.5156 47.0898 16.2812 46.75 16.1094 46.3594C15.9414 45.9688 15.8574 45.5469 15.8574 45.0938C15.8574 44.5977 15.9316 44.1562 16.0801 43.7695C16.2285 43.3789 16.4395 43.0508 16.7129 42.7852C16.9863 42.5156 17.3184 42.3125 17.709 42.1758C18.0996 42.0352 18.5391 41.9648 19.0273 41.9648C19.4883 41.9844 19.8848 42.0625 20.2168 42.1992C20.5527 42.3359 20.8281 42.5254 21.043 42.7676C21.2578 43.0098 21.416 43.3027 21.5176 43.6465C21.623 43.9863 21.6758 44.3691 21.6758 44.7949C21.6758 44.8926 21.6738 44.9707 21.6699 45.0293C21.666 45.084 21.6641 45.1191 21.6641 45.1348ZM29.7113 44.8535C29.7074 44.584 29.6664 44.3184 29.5883 44.0566C29.5102 43.791 29.3949 43.5547 29.2426 43.3477C29.0941 43.1406 28.9105 42.9727 28.6918 42.8438C28.477 42.7148 28.2289 42.6504 27.9477 42.6504C27.7406 42.6504 27.5453 42.6953 27.3617 42.7852C27.182 42.875 27.016 42.9941 26.8637 43.1426C26.7152 43.291 26.5824 43.4609 26.4652 43.6523C26.348 43.8438 26.2484 44.043 26.1664 44.25C26.0883 44.457 26.0277 44.6641 25.9848 44.8711C25.9418 45.0781 25.9203 45.2695 25.9203 45.4453V46.6348C25.9672 46.8184 26.0492 46.9766 26.1664 47.1094C26.2836 47.2383 26.4203 47.3477 26.5766 47.4375C26.7328 47.5234 26.9008 47.5879 27.0805 47.6309C27.2602 47.6699 27.434 47.6895 27.602 47.6895C27.8598 47.6895 28.0902 47.6465 28.2934 47.5605C28.5004 47.4746 28.682 47.3594 28.8383 47.2148C28.9945 47.0703 29.1273 46.9043 29.2367 46.7168C29.3461 46.5254 29.4359 46.3242 29.5063 46.1133C29.5766 45.9023 29.6273 45.6895 29.6586 45.4746C29.6938 45.2559 29.7113 45.0488 29.7113 44.8535ZM30.3383 44.8535C30.3383 45.1348 30.3109 45.416 30.2563 45.6973C30.2055 45.9746 30.1273 46.2422 30.0219 46.5C29.9203 46.7539 29.7934 46.9922 29.641 47.2148C29.4887 47.4336 29.3109 47.625 29.1078 47.7891C28.9047 47.9492 28.6762 48.0762 28.4223 48.1699C28.1723 48.2637 27.8988 48.3105 27.602 48.3105C27.2855 48.3105 26.9809 48.2598 26.6879 48.1582C26.3988 48.0605 26.143 47.916 25.9203 47.7246V50.4844C26.0102 50.4922 26.102 50.5 26.1957 50.5078C26.2895 50.5195 26.3813 50.5312 26.4711 50.543C26.5492 50.5547 26.6117 50.5898 26.6586 50.6484C26.7094 50.707 26.7348 50.7715 26.7348 50.8418C26.7348 50.9434 26.6996 51.0215 26.6293 51.0762C26.559 51.1309 26.4906 51.1582 26.4242 51.1582H26.3891C26.1586 51.127 25.9223 51.0996 25.6801 51.0762C25.4379 51.0566 25.182 51.0469 24.9125 51.0469C24.6664 51.0469 24.4086 51.0566 24.1391 51.0762C23.8734 51.0996 23.5863 51.1426 23.2777 51.2051H23.2309C23.141 51.2051 23.0668 51.1738 23.0082 51.1113C22.9496 51.0527 22.9203 50.9844 22.9203 50.9062C22.9203 50.832 22.9418 50.7656 22.9848 50.707C23.0316 50.6523 23.0941 50.6172 23.1723 50.6016C23.4066 50.5547 23.6273 50.5195 23.8344 50.4961V42.7793C23.6234 42.7676 23.4496 42.7539 23.3129 42.7383C23.1762 42.7188 23.102 42.709 23.0902 42.709C23.0121 42.6973 22.9477 42.6621 22.8969 42.6035C22.8461 42.5449 22.8207 42.4805 22.8207 42.4102C22.8207 42.3086 22.8559 42.2305 22.9262 42.1758C23.0004 42.1211 23.0707 42.0938 23.1371 42.0938H23.1723C23.1762 42.0938 23.2172 42.0996 23.2953 42.1113C23.3734 42.1191 23.475 42.1309 23.6 42.1465C23.7289 42.1582 23.8754 42.1699 24.0395 42.1816C24.2035 42.1895 24.3734 42.1934 24.5492 42.1934C24.7211 42.1934 24.893 42.1875 25.0648 42.1758C25.2367 42.1602 25.3969 42.1367 25.5453 42.1055C25.5609 42.0977 25.5824 42.0938 25.6098 42.0938C25.6996 42.0938 25.7738 42.127 25.8324 42.1934C25.891 42.2598 25.9203 42.332 25.9203 42.4102V43.3652C26.1547 42.9551 26.4438 42.6309 26.7875 42.3926C27.1352 42.1543 27.5219 42.0352 27.9477 42.0352C28.3305 42.0352 28.6684 42.1191 28.9613 42.2871C29.2543 42.4551 29.5004 42.6738 29.6996 42.9434C29.9027 43.2129 30.057 43.5156 30.1625 43.8516C30.268 44.1875 30.3266 44.5215 30.3383 44.8535ZM35.1805 48.082H35.1219C34.9656 48.0547 34.823 48.0312 34.6941 48.0117C34.5652 47.9922 34.4422 47.9785 34.325 47.9707C34.2078 47.959 34.0887 47.9512 33.9676 47.9473C33.8504 47.9434 33.7234 47.9414 33.5867 47.9414C33.3094 47.9414 33.0398 47.9531 32.7781 47.9766C32.5164 47.9961 32.2293 48.0352 31.9168 48.0938H31.8582C31.7605 48.0938 31.6863 48.0625 31.6355 48C31.5848 47.9414 31.5594 47.8691 31.5594 47.7832C31.5594 47.7129 31.5809 47.6504 31.6238 47.5957C31.6668 47.541 31.7254 47.5039 31.7996 47.4844C31.9441 47.4609 32.075 47.4434 32.1922 47.4316C32.3094 47.416 32.4344 47.4023 32.5672 47.3906V40.2363C32.3211 40.2168 32.1434 40.1992 32.034 40.1836C31.9285 40.1641 31.866 40.1543 31.8465 40.1543C31.7684 40.1426 31.7039 40.1074 31.6531 40.0488C31.6062 39.9902 31.5828 39.9238 31.5828 39.8496C31.5828 39.748 31.618 39.6719 31.6883 39.6211C31.7586 39.5664 31.827 39.5391 31.8934 39.5391H31.9285C31.9324 39.5391 31.9676 39.5449 32.034 39.5566C32.1004 39.5645 32.1902 39.5762 32.3035 39.5918C32.4207 39.6035 32.5574 39.6152 32.7137 39.627C32.8738 39.6348 33.0477 39.6387 33.2352 39.6387C33.4227 39.6387 33.6062 39.6328 33.7859 39.6211C33.9656 39.6055 34.1297 39.582 34.2781 39.5508C34.2898 39.543 34.3113 39.5391 34.3426 39.5391C34.4324 39.5391 34.5066 39.5723 34.5652 39.6387C34.6238 39.7012 34.6531 39.7715 34.6531 39.8496L34.6414 47.3906C34.7078 47.3984 34.7625 47.4062 34.8055 47.4141C34.8523 47.418 34.8953 47.4238 34.9344 47.4316C34.9773 47.4355 35.0203 47.4414 35.0633 47.4492C35.1102 47.4531 35.1687 47.4609 35.2391 47.4727C35.3133 47.4922 35.3738 47.5293 35.4207 47.584C35.4676 47.6387 35.491 47.7012 35.491 47.7715C35.491 47.8613 35.4578 47.9355 35.3914 47.9941C35.3289 48.0527 35.2586 48.082 35.1805 48.082ZM42.4602 45.1055C42.4602 44.9141 42.4387 44.7207 42.3957 44.5254C42.3527 44.3301 42.2902 44.1406 42.2082 43.957C42.1262 43.7734 42.0266 43.6016 41.9094 43.4414C41.7922 43.2812 41.6594 43.1426 41.5109 43.0254C41.3664 42.9043 41.2062 42.8105 41.0305 42.7441C40.8586 42.6738 40.675 42.6387 40.4797 42.6387C40.2609 42.6387 40.0695 42.6758 39.9055 42.75C39.7453 42.8203 39.6047 42.918 39.4836 43.043C39.3625 43.1641 39.2629 43.3047 39.1848 43.4648C39.1066 43.625 39.0441 43.7949 38.9973 43.9746C38.9504 44.1543 38.9172 44.3359 38.8977 44.5195C38.8781 44.7031 38.8684 44.8789 38.8684 45.0469C38.8684 45.2188 38.8762 45.4023 38.8918 45.5977C38.9074 45.7891 38.9348 45.9805 38.9738 46.1719C39.0129 46.3594 39.0656 46.541 39.132 46.7168C39.1984 46.8926 39.2844 47.0469 39.3898 47.1797C39.4953 47.3125 39.6223 47.418 39.7707 47.4961C39.923 47.5742 40.1027 47.6133 40.3098 47.6133C40.6496 47.6133 40.9523 47.543 41.218 47.4023C41.4875 47.2578 41.7141 47.0684 41.8977 46.834C42.0812 46.5996 42.2199 46.332 42.3137 46.0312C42.4113 45.7305 42.4602 45.4219 42.4602 45.1055ZM43.0695 45.1055C43.0695 45.5742 42.9855 46.0039 42.8176 46.3945C42.6496 46.7852 42.423 47.1211 42.1379 47.4023C41.8527 47.6797 41.5187 47.8965 41.1359 48.0527C40.757 48.209 40.3566 48.2871 39.9348 48.2871C39.4582 48.2871 39.0266 48.2109 38.6398 48.0586C38.257 47.9102 37.9289 47.6973 37.6555 47.4199C37.382 47.1426 37.1711 46.8086 37.0227 46.418C36.8781 46.0273 36.8059 45.5898 36.8059 45.1055C36.8059 44.6445 36.8859 44.2188 37.0461 43.8281C37.2062 43.4375 37.427 43.1016 37.7082 42.8203C37.9895 42.5352 38.3195 42.3145 38.6984 42.1582C39.0812 41.998 39.4934 41.918 39.9348 41.918C40.3957 41.918 40.8176 42.0039 41.2004 42.1758C41.5871 42.3438 41.9191 42.5742 42.1965 42.8672C42.4738 43.1562 42.6887 43.4941 42.841 43.8809C42.9934 44.2676 43.0695 44.6758 43.0695 45.1055ZM51.3336 42.0938C51.3336 42.1719 51.3063 42.2402 51.2516 42.2988C51.2008 42.3574 51.1363 42.3906 51.0582 42.3984C50.984 42.4102 50.9098 42.4199 50.8355 42.4277C50.7652 42.4316 50.691 42.4375 50.6129 42.4453C50.5855 42.5547 50.5465 42.709 50.4957 42.9082C50.4488 43.1035 50.3922 43.3281 50.3258 43.582C50.2594 43.8359 50.1871 44.1113 50.109 44.4082C50.0348 44.7051 49.9566 45.0078 49.8746 45.3164C49.7926 45.625 49.7086 45.9316 49.6227 46.2363C49.5367 46.541 49.4527 46.8301 49.3707 47.1035C49.2926 47.373 49.2164 47.6191 49.1422 47.8418C49.0719 48.0605 49.0074 48.2422 48.9488 48.3867C48.7887 48.7695 48.5973 49.1426 48.3746 49.5059C48.1559 49.873 47.902 50.1992 47.6129 50.4844C47.3277 50.7695 47.0074 50.998 46.652 51.1699C46.2965 51.3457 45.9059 51.4336 45.4801 51.4336C45.2145 51.4336 44.9586 51.3965 44.7125 51.3223C44.4664 51.252 44.2496 51.1445 44.0621 51C43.8746 50.8555 43.7242 50.6777 43.6109 50.4668C43.4977 50.2598 43.441 50.0176 43.441 49.7402C43.441 49.5645 43.4664 49.3887 43.5172 49.2129C43.5641 49.041 43.6363 48.8867 43.734 48.75C43.8277 48.6172 43.9449 48.5078 44.0855 48.4219C44.2262 48.3398 44.3902 48.2988 44.5777 48.2988C44.7223 48.2988 44.857 48.3262 44.982 48.3809C45.1109 48.4355 45.2223 48.5098 45.316 48.6035C45.4098 48.6973 45.484 48.8066 45.5387 48.9316C45.5934 49.0605 45.6207 49.1973 45.6207 49.3418C45.6207 49.4863 45.5934 49.6211 45.5387 49.7461C45.484 49.875 45.4098 49.9863 45.316 50.0801C45.2223 50.1777 45.1109 50.2539 44.982 50.3086C44.857 50.3633 44.7223 50.3906 44.5777 50.3906C44.5113 50.3906 44.4488 50.3848 44.3902 50.373C44.3316 50.3613 44.275 50.3457 44.2203 50.3262C44.3102 50.4395 44.4137 50.5293 44.5309 50.5957C44.648 50.666 44.775 50.7012 44.9117 50.7012C45.0836 50.7012 45.2477 50.6484 45.4039 50.543C45.5602 50.4414 45.7066 50.3086 45.8434 50.1445C45.984 49.9805 46.1129 49.7969 46.2301 49.5938C46.3473 49.3906 46.4527 49.1875 46.5465 48.9844C46.6441 48.7812 46.7281 48.5898 46.7984 48.4102C46.8688 48.2305 46.9254 48.082 46.9684 47.9648C46.9996 47.8789 47.0289 47.7891 47.0563 47.6953C47.0875 47.5977 47.1207 47.4961 47.1559 47.3906C46.7262 46.8047 46.3824 46.2578 46.1246 45.75C45.8668 45.2422 45.6656 44.7832 45.5211 44.373C45.3805 43.9629 45.2848 43.6074 45.234 43.3066C45.1871 43.002 45.1598 42.7617 45.152 42.5859C45.0035 42.5859 44.8531 42.584 44.7008 42.5801C44.5523 42.5723 44.4039 42.5586 44.2555 42.5391C44.1773 42.5312 44.1109 42.5 44.0563 42.4453C44.0055 42.3867 43.9801 42.3184 43.9801 42.2402C43.9801 42.1543 44.0113 42.082 44.0738 42.0234C44.1402 41.9609 44.2125 41.9297 44.2906 41.9297H44.3258C44.4625 41.9492 44.6012 41.9629 44.7418 41.9707C44.8863 41.9746 45.0328 41.9766 45.1813 41.9766C45.4078 41.9766 45.6363 41.9688 45.8668 41.9531C46.1012 41.9336 46.3395 41.9043 46.5816 41.8652C46.5973 41.8574 46.6129 41.8535 46.6285 41.8535C46.7184 41.8535 46.7926 41.8867 46.8512 41.9531C46.9137 42.0195 46.9449 42.0918 46.9449 42.1699C46.9449 42.2402 46.9195 42.3047 46.8688 42.3633C46.8219 42.4219 46.7594 42.457 46.6813 42.4688C46.5211 42.4922 46.3648 42.5137 46.2125 42.5332C46.0641 42.5488 45.9156 42.5625 45.7672 42.5742C45.7711 42.7148 45.7926 42.9121 45.8316 43.166C45.8746 43.4199 45.9527 43.7207 46.066 44.0684C46.1832 44.416 46.3453 44.8066 46.5523 45.2402C46.7633 45.6738 47.0406 46.1426 47.3844 46.6465C47.4938 46.2715 47.6031 45.8789 47.7125 45.4688C47.8258 45.0547 47.9313 44.6562 48.0289 44.2734C48.1305 43.8906 48.2203 43.5391 48.2984 43.2188C48.3805 42.8984 48.4449 42.6406 48.4918 42.4453C48.4137 42.4375 48.3316 42.4316 48.2457 42.4277C48.1637 42.4199 48.0816 42.4102 47.9996 42.3984C47.9215 42.3906 47.8551 42.3574 47.8004 42.2988C47.7496 42.2402 47.7242 42.1719 47.7242 42.0938C47.7242 42 47.7574 41.9258 47.8238 41.8711C47.8902 41.8125 47.9605 41.7832 48.0348 41.7832H48.0699C48.3121 41.8145 48.5523 41.8359 48.7906 41.8477C49.0328 41.8594 49.277 41.8652 49.523 41.8652C49.7652 41.8652 50.0074 41.8594 50.2496 41.8477C50.4957 41.8359 50.7418 41.8145 50.9879 41.7832H51.023C51.1129 41.7832 51.1871 41.8164 51.2457 41.8828C51.3043 41.9453 51.3336 42.0156 51.3336 42.0938ZM57.5352 44.9062V44.8066C57.5352 44.5137 57.5039 44.2422 57.4414 43.9922C57.3789 43.7422 57.2793 43.5215 57.1426 43.3301C57.0098 43.1348 56.8379 42.9746 56.627 42.8496C56.416 42.7246 56.1621 42.6406 55.8652 42.5977C55.6582 42.6211 55.4785 42.6777 55.3262 42.7676C55.1738 42.8574 55.043 42.9688 54.9336 43.1016C54.8281 43.2305 54.7402 43.377 54.6699 43.541C54.5996 43.7051 54.543 43.875 54.5 44.0508C54.4609 44.2227 54.4316 44.3965 54.4121 44.5723C54.3926 44.7441 54.3809 44.9062 54.377 45.0586C54.4395 45.0781 54.5176 45.0996 54.6113 45.123C54.709 45.1465 54.8184 45.1699 54.9395 45.1934C55.0605 45.2129 55.1914 45.2305 55.332 45.2461C55.4766 45.2578 55.627 45.2637 55.7832 45.2637C56.1152 45.2637 56.4258 45.2324 56.7148 45.1699C57.0078 45.1074 57.2812 45.0195 57.5352 44.9062ZM58.1328 45.1348C58.1211 45.2363 58.0664 45.3242 57.9688 45.3984C57.8711 45.4727 57.748 45.5391 57.5996 45.5977C57.4512 45.6523 57.2871 45.6992 57.1074 45.7383C56.9316 45.7734 56.7578 45.8027 56.5859 45.8262C56.4141 45.8496 56.2559 45.8672 56.1113 45.8789C55.9668 45.8867 55.8535 45.8906 55.7715 45.8906C55.4863 45.8906 55.2227 45.8711 54.9805 45.832C54.7422 45.793 54.5449 45.752 54.3887 45.709C54.4121 45.9512 54.457 46.1895 54.5234 46.4238C54.5898 46.6582 54.6855 46.8691 54.8105 47.0566C54.9355 47.2402 55.0918 47.3906 55.2793 47.5078C55.4668 47.6211 55.6934 47.6777 55.959 47.6777C56.0566 47.6777 56.168 47.666 56.293 47.6426C56.418 47.6152 56.541 47.5781 56.6621 47.5312C56.7832 47.4805 56.8945 47.4219 56.9961 47.3555C57.0977 47.2852 57.1777 47.207 57.2363 47.1211C57.3027 47.043 57.3828 47.0039 57.4766 47.0039C57.5586 47.0039 57.6309 47.0371 57.6934 47.1035C57.7559 47.166 57.7871 47.2363 57.7871 47.3145C57.7871 47.3965 57.7617 47.4609 57.7109 47.5078C57.6172 47.6523 57.4863 47.7754 57.3184 47.877C57.1504 47.9785 56.9688 48.0605 56.7734 48.123C56.5781 48.1895 56.3809 48.2363 56.1816 48.2637C55.9824 48.2949 55.8008 48.3105 55.6367 48.3105C55.168 48.3105 54.7324 48.2266 54.3301 48.0586C53.9277 47.8945 53.5781 47.668 53.2812 47.3789C52.9844 47.0898 52.75 46.75 52.5781 46.3594C52.4102 45.9688 52.3262 45.5469 52.3262 45.0938C52.3262 44.5977 52.4004 44.1562 52.5488 43.7695C52.6973 43.3789 52.9082 43.0508 53.1816 42.7852C53.4551 42.5156 53.7871 42.3125 54.1777 42.1758C54.5684 42.0352 55.0078 41.9648 55.4961 41.9648C55.957 41.9844 56.3535 42.0625 56.6855 42.1992C57.0215 42.3359 57.2969 42.5254 57.5117 42.7676C57.7266 43.0098 57.8848 43.3027 57.9863 43.6465C58.0918 43.9863 58.1445 44.3691 58.1445 44.7949C58.1445 44.8926 58.1426 44.9707 58.1387 45.0293C58.1348 45.084 58.1328 45.1191 58.1328 45.1348ZM64.0707 43.582C64.0121 43.4062 63.9242 43.2539 63.807 43.125C63.6898 42.9961 63.5551 42.8887 63.4027 42.8027C63.2543 42.7168 63.0941 42.6543 62.9223 42.6152C62.7504 42.5723 62.5766 42.5508 62.4008 42.5508C62.1352 42.5508 61.8988 42.5938 61.6918 42.6797C61.4848 42.7617 61.3031 42.875 61.1469 43.0195C60.9906 43.1602 60.8559 43.3262 60.7426 43.5176C60.6332 43.7051 60.5434 43.9043 60.473 44.1152C60.4027 44.3223 60.352 44.5352 60.3207 44.7539C60.2895 44.9727 60.2738 45.1836 60.2738 45.3867C60.2777 45.6719 60.3168 45.9473 60.391 46.2129C60.4691 46.4746 60.5824 46.709 60.7309 46.916C60.8832 47.1191 61.0668 47.2832 61.2816 47.4082C61.5004 47.5293 61.7523 47.5898 62.0375 47.5898C62.2992 47.5898 62.5316 47.5293 62.7348 47.4082C62.9379 47.2832 63.1156 47.127 63.268 46.9395C63.4242 46.752 63.5551 46.5469 63.6605 46.3242C63.766 46.0977 63.85 45.8828 63.9125 45.6797C63.975 45.4727 64.018 45.291 64.0414 45.1348C64.0687 44.9746 64.0785 44.8691 64.0707 44.8184V43.582ZM66.8656 47.9766H66.8422C66.7445 47.9688 66.6469 47.9629 66.5492 47.959C66.4555 47.9551 66.3637 47.9531 66.2738 47.9531C66.0238 47.9531 65.7895 47.9648 65.5707 47.9883C65.352 48.0117 65.1605 48.0371 64.9965 48.0645C64.8363 48.0957 64.7074 48.123 64.6098 48.1465C64.516 48.1699 64.4672 48.1816 64.4633 48.1816C64.4516 48.1895 64.4379 48.1934 64.4223 48.1934C64.4066 48.1934 64.393 48.1934 64.3812 48.1934C64.2914 48.1934 64.2172 48.1602 64.1586 48.0938C64.1 48.0312 64.0707 47.9609 64.0707 47.8828V46.8867C63.9809 47.0742 63.8656 47.248 63.725 47.4082C63.5883 47.5684 63.434 47.707 63.2621 47.8242C63.0902 47.9414 62.9008 48.0332 62.6937 48.0996C62.4906 48.1699 62.2777 48.2051 62.0551 48.2051C61.6801 48.2051 61.3461 48.1289 61.0531 47.9766C60.7602 47.8242 60.5102 47.6211 60.3031 47.3672C60.1 47.1094 59.9437 46.8105 59.8344 46.4707C59.725 46.1309 59.6684 45.7734 59.6645 45.3984C59.6645 45.1055 59.6879 44.8184 59.7348 44.5371C59.7855 44.252 59.8617 43.9824 59.9633 43.7285C60.0648 43.4707 60.1898 43.2324 60.3383 43.0137C60.4906 42.7949 60.6684 42.6074 60.8715 42.4512C61.0746 42.291 61.3031 42.166 61.557 42.0762C61.8109 41.9863 62.0922 41.9414 62.4008 41.9414C62.7406 41.9414 63.0512 41.9922 63.3324 42.0938C63.6137 42.1953 63.8598 42.3359 64.0707 42.5156V40.1543C63.8285 40.1426 63.6234 40.127 63.4555 40.1074C63.2914 40.0879 63.1996 40.0781 63.1801 40.0781C63.102 40.0664 63.0355 40.0312 62.9809 39.9727C62.9301 39.9141 62.9047 39.8457 62.9047 39.7676C62.9047 39.6816 62.9359 39.6113 62.9984 39.5566C63.0648 39.498 63.1371 39.4688 63.2152 39.4688H63.2504C63.2543 39.4688 63.2992 39.4746 63.3852 39.4863C63.4711 39.4941 63.5824 39.5039 63.7191 39.5156C63.8598 39.5273 64.0199 39.5391 64.1996 39.5508C64.3793 39.5586 64.5629 39.5625 64.7504 39.5625C64.934 39.5625 65.1137 39.5566 65.2895 39.5449C65.4691 39.5293 65.6332 39.5039 65.7816 39.4688H65.8578C65.9477 39.4688 66.0199 39.5 66.0746 39.5625C66.1293 39.6211 66.1566 39.6895 66.1566 39.7676V47.3379H66.2738C66.3754 47.3379 66.477 47.3398 66.5785 47.3438C66.684 47.3438 66.7875 47.3496 66.8891 47.3613C66.975 47.3691 67.0434 47.4023 67.0941 47.4609C67.1488 47.5195 67.1762 47.5879 67.1762 47.666C67.1762 47.7598 67.141 47.8359 67.0707 47.8945C67.0043 47.9492 66.9359 47.9766 66.8656 47.9766Z" fill="#A4A4A4"/>
<ellipse cx="65" cy="7.04167" rx="5.5" ry="5.04167" fill="white"/>
</svg>
